<svg xmlns="http://www.w3.org/2000/svg" viewBox="0 0 45 45" width="45" height="45">
  <g fill="#000000" stroke="#000000" stroke-width="1.5" stroke-linecap="round" stroke-linejoin="round">
    <path d="M9,26c8.5-1.5,21.5-1.5,30,0l2.5,12.5L6.5,38.5L9,26z"/>
    <path d="M12,35.5l21,0"/>
    <path d="M11,38.5a35,35,1,0,0,23,0"/>
    <path d="M10,27a35,35,1,0,0,25,0"/>
    <path d="M22.5,15.5l0,8.5"/>
    <path d="M20,18l5,0"/>
    <circle cx="6" cy="12" r="2"/>
    <circle cx="14" cy="9" r="2"/>
    <circle cx="22.5" cy="8" r="2"/>
    <circle cx="31" cy="9" r="2"/>
    <circle cx="39" cy="12" r="2"/>
    <path d="M13,9c5.5,1.5,15.5,1.5,21,0"/>
    <path d="M15,15.5a0.5,0.5,0,1,1-1,0c-4,6.5-3,9-3,11l4,6.5L24,33c-1-2,0-5,3-11a0.5,0.5,0,1,1-1,0;z"/>
  </g>
</svg>
