<svg xmlns="http://www.w3.org/2000/svg" viewBox="0 0 45 45" width="45" height="45">
  <g fill="#ffffff" stroke="#000000" stroke-width="1.5" stroke-linecap="round" stroke-linejoin="round">
    <path d="M9,39l27,0l0-3l-2,0l0-2l-1,0l0-1l-4,0l0-1l-2,0l0-1l-8,0l0,1l-2,0l0,1l-4,0l0,1l-1,0l0,2l-2,0l0,3z"/>
    <path d="M12,36l0-4"/>
    <path d="M36,36l0-4"/>
    <path d="M11,14l4,0l0-2l-3,0l0-3l22,0l0,3l-3,0l0,2l4,0"/>
    <path d="M34,14l0,18"/>
    <path d="M11,14l0,18"/>
    <path d="M15,32l15,0"/>
    <path d="M15,29l15,0"/>
    <path d="M15,26l15,0"/>
    <path d="M15,23l15,0"/>
    <path d="M15,20l15,0"/>
    <path d="M15,17l15,0"/>
    <path d="M13,9l19,0"/>
  </g>
</svg>
