<svg xmlns="http://www.w3.org/2000/svg" viewBox="0 0 45 45" width="45" height="45">
  <g fill="#ffffff" stroke="#000000" stroke-width="1.5" stroke-linecap="round" stroke-linejoin="round">
    <path d="M22.5,11.63l5.86-5.86"/>
    <path d="M22.5,25l5.86-5.86"/>
    <path d="M22.5,11.63l-5.86-5.86"/>
    <path d="M22.5,25l-5.86-5.86"/>
    <path d="M22.5,11.63l0-8.13"/>
    <path d="M22.5,25l0-8.13"/>
    <path d="m9,26c8.5-1.5,21.5-1.5,30,0l2.5,12.5L6.5,38.5L9,26z"/>
    <path d="m9,26c0,2,1.5,2,2.5,4c1,1.5,1,1,0.5,3.5c-1.5,1.5-1.5,2.5-1.5,2.5c-1.5,1.5.5,2.5.5,2.5c6.5,1,16.5,1,23,0c0,0,1.5-1,0.5-2.5c0,0,.5-1.5-1.5-2.5c-.5-2.5-.5-2,0.5-3.5c1-2,2.5-2,2.5-4c-8.5-1.5-21.5-1.5-30,0z"/>
    <path d="m11.5,30c3.5-1,18.5-1,22,0M12,33.5c6-1,15-1,21,0"/>
    <circle cx="6" cy="12" r="2"/>
    <circle cx="14" cy="9" r="2"/>
    <circle cx="22.5" cy="8" r="2"/>
    <circle cx="31" cy="9" r="2"/>
    <circle cx="39" cy="12" r="2"/>
  </g>
</svg>
