<svg xmlns="http://www.w3.org/2000/svg" viewBox="0 0 45 45" width="45" height="45">
  <g fill="#ffffff" stroke="#000000" stroke-width="1.5" stroke-linecap="round" stroke-linejoin="round">
    <path d="M36,36c3.39-0.97,10.65,0.43,13.5-2c2.39-2.05,1.61-9.17-4-9c-6.39,0.19-8.89,1.5-13.5,2c-3.39-0.97-10.65,0.43-13.5-2C16.11,22.95,16.89,15.83,22.5,16c6.39,0.19,8.89,1.5,13.5,2"/>
    <path d="M17,17c0,2.5,2.5,5,5.5,5s5.5-2.5,5.5-5"/>
    <path d="M19.5,8.5l5,0"/>
    <path d="M22,8.5l0,2.5"/>
    <path d="M9,26c8.5-1.5,21.5-1.5,30,0l2.5,12.5L6.5,38.5L9,26z"/>
    <path d="M12,35.5l21,0"/>
    <path d="M11,38.5a35,35,1,0,0,23,0"/>
    <path d="M10,27a35,35,1,0,0,25,0"/>
  </g>
</svg>
