<svg width="24" height="24" viewBox="0 0 24 24" fill="none" xmlns="http://www.w3.org/2000/svg">
  <!-- Robot head -->
  <rect x="5" y="8" width="14" height="10" rx="2" fill="#ef4444" stroke="#dc2626" stroke-width="1"/>
  <!-- Antenna -->
  <line x1="12" y1="4" x2="12" y2="8" stroke="#dc2626" stroke-width="2" stroke-linecap="round"/>
  <circle cx="12" cy="4" r="1.5" fill="#dc2626"/>
  <!-- Eyes -->
  <circle cx="9" cy="12" r="1.5" fill="#ffffff"/>
  <circle cx="15" cy="12" r="1.5" fill="#ffffff"/>
  <!-- Pupils -->
  <circle cx="9" cy="12" r="0.8" fill="#dc2626"/>
  <circle cx="15" cy="12" r="0.8" fill="#dc2626"/>
  <!-- Angry mouth -->
  <path d="M10 16 Q12 14 14 16" stroke="#ffffff" stroke-width="1.5" fill="none" stroke-linecap="round"/>
  <!-- Body -->
  <rect x="7" y="18" width="10" height="4" rx="1" fill="#ef4444" stroke="#dc2626" stroke-width="1"/>
  <!-- Arms -->
  <rect x="3" y="14" width="3" height="6" rx="1" fill="#ef4444" stroke="#dc2626" stroke-width="1"/>
  <rect x="18" y="14" width="3" height="6" rx="1" fill="#ef4444" stroke="#dc2626" stroke-width="1"/>
  <!-- Additional details for hard difficulty -->
  <rect x="9.5" y="9.5" width="1" height="1" fill="#ffffff"/>
  <rect x="13.5" y="9.5" width="1" height="1" fill="#ffffff"/>
  <!-- Warning symbol on forehead -->
  <polygon points="12,9.5 12.8,11 11.2,11" fill="#ffffff"/>
  <rect x="11.7" y="11.2" width="0.6" height="0.6" fill="#ffffff"/>
</svg>
