<svg xmlns="http://www.w3.org/2000/svg" viewBox="0 0 48 48" fill="currentColor">
  <path d="M24 4c-2.2 0-4 1.8-4 4s1.8 4 4 4 4-1.8 4-4-1.8-4-4-4zm0 6c-1.1 0-2-.9-2-2s.9-2 2-2 2 .9 2 2-.9 2-2 2z"/>
  <path d="M24 12c-3.3 0-6 2.7-6 6 0 2.2 1.2 4.1 3 5.2v2.8c0 1.1.9 2 2 2h2v12h-8v4h16v-4h-8V28h2c1.1 0 2-.9 2-2v-2.8c1.8-1.1 3-2.9 3-5.2 0-3.3-2.7-6-6-6zm2 12h-4v-2h4v2zm1-4.5c-.6.3-1 .9-1 1.5v1h-4v-1c0-.6-.4-1.2-1-1.5-1.2-.6-2-1.8-2-3.5 0-2.2 1.8-4 4-4s4 1.8 4 4c0 1.7-.8 2.9-2 3.5z"/>
  <path d="M18 36h12l2 4H16z"/>
  <path d="M17 40h14v4H17z"/>
</svg>
