<svg width="24" height="24" viewBox="0 0 24 24" fill="none" xmlns="http://www.w3.org/2000/svg">
  <path d="M7 20C7 20.5523 7.44772 21 8 21H16C16.5523 21 17 20.5523 17 20V19H7V20Z" fill="currentColor"/>
  <path d="M6 17H18V18H6V17Z" fill="currentColor"/>
  <path d="M5 16H19C19.5523 16 20 15.5523 20 15C20 14.4477 19.5523 14 19 14H17.5L16.5 13H15.5L15 12.5V11.5L14.5 11H13.5L13 10.5V9.5L12.5 9H11.5L11 8.5V7.5L10.5 7H9.5L9 6.5V5.5L8.5 5H7.5L7 4.5V3.5C7 3.22386 7.22386 3 7.5 3H8.5C8.77614 3 9 3.22386 9 3.5V4H10V3.5C10 2.67157 9.32843 2 8.5 2H7.5C6.67157 2 6 2.67157 6 3.5V4.5L5.5 5H4.5C4.22386 5 4 5.22386 4 5.5V6.5L4.5 7H5.5L6 7.5V8.5L5.5 9H4.5C4.22386 9 4 9.22386 4 9.5V10.5L4.5 11H5.5L6 11.5V12.5L5.5 13H4.5C4.22386 13 4 13.22386 4 13.5V14.5C4 14.7761 4.22386 15 4.5 15H5C5.55228 15 6 15.4477 6 16Z" fill="currentColor"/>
  <circle cx="8" cy="6" r="1" fill="white"/>
</svg>