<?xml version="1.0" encoding="UTF-8"?>
<svg width="800" height="800" viewBox="0 0 800 800" xmlns="http://www.w3.org/2000/svg">
  <g fill="#000000">
    <!-- Main globe circle -->
    <circle cx="400" cy="400" r="350" fill="none" stroke="#000000" stroke-width="20"/>
    
    <!-- Vertical meridian lines -->
    <ellipse cx="400" cy="400" rx="350" ry="150" fill="none" stroke="#000000" stroke-width="12"/>
    <ellipse cx="400" cy="400" rx="350" ry="250" fill="none" stroke="#000000" stroke-width="8"/>
    
    <!-- Horizontal latitude lines -->
    <line x1="80" y1="400" x2="720" y2="400" stroke="#000000" stroke-width="12"/>
    <line x1="120" y1="280" x2="680" y2="280" stroke="#000000" stroke-width="8"/>
    <line x1="120" y1="520" x2="680" y2="520" stroke="#000000" stroke-width="8"/>
    
    <!-- Central vertical line -->
    <line x1="400" y1="50" x2="400" y2="750" stroke="#000000" stroke-width="12"/>
    
    <!-- Connection points -->
    <circle cx="200" cy="200" r="15" fill="#000000"/>
    <circle cx="600" cy="200" r="15" fill="#000000"/>
    <circle cx="200" cy="600" r="15" fill="#000000"/>
    <circle cx="600" cy="600" r="15" fill="#000000"/>
    
    <!-- Signal waves -->
    <path d="M 150 150 Q 400 100 650 150" fill="none" stroke="#000000" stroke-width="8" stroke-dasharray="15,10"/>
    <path d="M 150 650 Q 400 700 650 650" fill="none" stroke="#000000" stroke-width="8" stroke-dasharray="15,10"/>
    
    <!-- WiFi-like signal in corner -->
    <path d="M 650 50 A 150 150 0 0 1 750 150" fill="none" stroke="#000000" stroke-width="12" stroke-linecap="round"/>
    <path d="M 675 75 A 100 100 0 0 1 725 125" fill="none" stroke="#000000" stroke-width="10" stroke-linecap="round"/>
    <path d="M 700 100 A 50 50 0 0 1 725 125" fill="none" stroke="#000000" stroke-width="8" stroke-linecap="round"/>
  </g>
</svg>
