<?xml version="1.0" encoding="iso-8859-1"?>
<!-- Uploaded to: SVG Repo, www.svgrepo.com, Generator: SVG Repo Mixer Tools -->
<svg fill="#000000" version="1.1" id="Capa_1" xmlns="http://www.w3.org/2000/svg" xmlns:xlink="http://www.w3.org/1999/xlink" 
	 viewBox="0 0 60 60" xml:space="preserve">
<g>
	<g>
		<path d="M60,13c0-0.1,0-0.2-0.1-0.3v-0.1c-0.1-0.1-0.1-0.2-0.2-0.3l-12-12c-0.1-0.1-0.2-0.1-0.3-0.2h-0.1C47.2,0.1,47.1,0,47,0
			l0,0H1C0.4,0,0,0.4,0,1v59h2V2h44v11c0,0.6,0.4,1,1,1h11v46h2V13L60,13z M48,12V3.4l8.6,8.6H48z"/>
		<path d="M49,27c0-0.6-0.4-1-1-1h-8c-0.6,0-1,0.4-1,1v29h-3V38c0-0.6-0.4-1-1-1h-8c-0.6,0-1,0.4-1,1v18h-3V33c0-0.6-0.4-1-1-1h-8
			c-0.6,0-1,0.4-1,1v23H8V20H6v37c0,0.6,0.4,1,1,1h7h8h5h8h5h8h6v-2h-5V27z M47,28v3h-6v-3H47z M34,39v3h-6v-3H34z M21,34v3h-6v-3
			H21z M15,56V39h6v17H15z M28,56V44h6v12H28z M41,56V33h6v23H41z"/>
		<rect x="6" y="5" width="10" height="2"/>
		<rect x="6" y="9" width="16" height="2"/>
		<rect x="6" y="13" width="2" height="2"/>
		<rect x="10" y="13" width="2" height="2"/>
		<rect x="14" y="13" width="2" height="2"/>
		<rect x="13" y="22" width="2" height="2"/>
		<rect x="13" y="26" width="10" height="2"/>
		<rect x="17" y="22" width="2" height="2"/>
		<rect x="26" y="27" width="2" height="2"/>
		<rect x="26" y="31" width="10" height="2"/>
		<rect x="30" y="27" width="2" height="2"/>
		<rect x="39" y="16" width="2" height="2"/>
		<rect x="39" y="20" width="10" height="2"/>
		<rect x="43" y="16" width="2" height="2"/>
	</g>
</g>
</svg>