<?xml version="1.0" standalone="no"?>
<!DOCTYPE svg PUBLIC "-//W3C//DTD SVG 20010904//EN"
 "http://www.w3.org/TR/2001/REC-SVG-20010904/DTD/svg10.dtd">
<svg version="1.0" xmlns="http://www.w3.org/2000/svg"
 width="800.000000pt" height="800.000000pt" viewBox="0 0 800.000000 800.000000"
 preserveAspectRatio="xMidYMid meet">

<g transform="translate(0.000000,800.000000) scale(0.100000,-0.100000)"
fill="#000000" stroke="none">
<path d="M3850 7994 c-14 -2 -65 -9 -115 -15 -251 -31 -538 -140 -765 -292
-105 -70 -171 -124 -279 -230 -298 -293 -481 -662 -537 -1082 -19 -145 -14
-424 10 -556 72 -387 246 -720 521 -994 358 -359 805 -545 1310 -546 321 0
593 65 863 207 898 471 1257 1562 813 2469 -97 197 -192 328 -359 498 -299
304 -692 491 -1123 537 -89 9 -285 11 -339 4z m451 -343 c199 -40 386 -118
560 -233 116 -77 322 -279 404 -397 113 -163 197 -356 246 -566 32 -141 38
-414 11 -570 -135 -791 -855 -1354 -1643 -1285 -376 32 -703 184 -969 450
-230 231 -377 514 -432 835 -27 156 -21 429 11 570 69 297 195 535 395 743
236 245 527 403 836 456 52 8 106 18 120 20 63 11 369 -4 461 -23z"/>
<path d="M3680 3910 c-1102 -105 -2046 -634 -2707 -1518 -448 -598 -708 -1341
-730 -2087 -5 -188 -5 -190 18 -224 13 -19 37 -44 52 -55 l28 -21 3659 0 3659
0 28 21 c62 46 73 76 73 203 0 309 -58 686 -156 1013 -392 1314 -1505 2333
-2843 2603 -255 51 -405 66 -706 70 -154 2 -323 0 -375 -5z m665 -325 c884
-93 1683 -508 2258 -1174 489 -567 770 -1245 833 -2008 l7 -83 -3443 0 -3443
0 7 83 c59 720 309 1356 752 1912 109 136 386 414 517 519 352 280 709 472
1124 606 235 75 482 124 773 153 104 11 485 5 615 -8z"/>
</g>
</svg>
